 http://www.imdb.com/title/tt0306685

Source: Cradle.2.the.Grave.2003.BluRay.720p.DTS.x264-CHD Thanks!

Subs: Arabic, Danish, Dutch, English, Finnish, Indonesian, Norwegian and  Swedish.

Sample and Screens included.

General
Complete name                            : Cradle 2 the Grave-720p MP4 AAC x264 BRRip 2003-CC.mp4
Format                                   : MPEG-4
Format profile                           : Base Media
Codec ID                                 : isom
File size                                : 2.51 GiB
Duration                                 : 1h 41mn
Overall bit rate mode                    : Variable
Overall bit rate                         : 3 554 Kbps
Encoded date                             : UTC 2012-09-02 17:32:12

Video
ID                                       : 1
Format                                   : AVC
Format/Info                              : Advanced Video Codec
Format profile                           : High@L3.1
Format settings, CABAC                   : Yes
Format settings, ReFrames                : 5 frames
Codec ID                                 : avc1
Codec ID/Info                            : Advanced Video Coding
Duration                                 : 1h 41mn
Bit rate                                 : 3 161 Kbps
Maximum bit rate                         : 21.7 Mbps
Width                                    : 1 280 pixels
Height                                   : 528 pixels
Display aspect ratio                     : 2.40:1
Frame rate mode                          : Variable
Frame rate                               : 23.976 fps
Minimum frame rate                       : 19.048 fps
Maximum frame rate                       : 24.390 fps
Color space                              : YUV
Chroma subsampling                       : 4:2:0
Bit depth                                : 8 bits
Scan type                                : Progressive
Bits/(Pixel*Frame)                       : 0.195
Stream size                              : 2.24 GiB (89%)
Writing library                          : x264 core 112

Audio
ID                                       : 2
Format                                   : AAC
Format/Info                              : Advanced Audio Codec
Format profile                           : LC
Codec ID                                 : 40
Duration                                 : 1h 41mn
Bit rate mode                            : Variable
Bit rate                                 : 384 Kbps
Maximum bit rate                         : 715 Kbps
Channel(s)                               : 6 channels
Channel positions                        : Front: L C R, Side: L R, LFE
Sampling rate                            : 48.0 KHz
Compression mode                         : Lossy
Delay relative to video                  : 83ms
Stream size                              : 278 MiB (11%)
Language                                 : English

Enjoy...

Requested by aartje80.

Coming up soon: Titanic, Batman Begins, Harvey, Arachnophobia and more...